# xmcd
#
# Track frame offsets: 
#        150
#        21725
#        37775
#        59175
#        76450
#        96250
#        112750
#        135675
#        155625
#        170775
#        192300
#        207300
#
# Disc length: 2991 seconds
#
# Revision: 0
# Processed by: cddbd v1.5.2PL0 Copyright (c) Steve Scherf et al.
# Submitted via: ExactAudioCopy v1.0b3
#
DISCID=ad0bad0c
DTITLE=黄韵玲 - 忧伤男孩
DYEAR=1987
DGENRE=STEREO
TTITLE0=忧伤男孩
TTITLE1=这样的年纪
TTITLE2=结婚喜帖
TTITLE3=再也不
TTITLE4=爱情骗子
TTITLE5=怎么可能
TTITLE6=你是唯一
TTITLE7=一瞬间
TTITLE8=下午茶
TTITLE9=我是你的
TTITLE10=就这样到明天
TTITLE11=改变
EXTD=
EXTT0=
EXTT1=
EXTT2=
EXTT3=
EXTT4=
EXTT5=
EXTT6=
EXTT7=
EXTT8=
EXTT9=
EXTT10=
EXTT11=
PLAYORDER=
